<svg xmlns="http://www.w3.org/2000/svg" viewBox="0 0 561 86" fill="none"><path fill="#002B11" d="M557.238 66.412a3.016 3.016 0 1 0-.002 6.032 3.016 3.016 0 0 0 .002-6.032m0 5.56a2.544 2.544 0 1 1 0-5.088 2.544 2.544 0 0 1 0 5.088m.98-3.057c0-.549-.392-.875-.966-.875h-.965v2.748h.475v-.997h.515l.498.997h.51l-.539-1.1a.8.8 0 0 0 .472-.773m-.985.456h-.467v-.91h.467c.317 0 .51.16.51.454s-.193.46-.51.46zm-355.142-40.85h5.233V38.88H201.2c-4.716 0-7.743 2.314-7.743 7.032v26.041h-11.195v-43.43h11.195v7.297c.98-5.162 4.54-7.298 8.634-7.298m22.485-10.327a6.764 6.764 0 0 1-6.767 6.762 6.763 6.763 0 0 1-6.761-6.762c0-3.828 2.936-6.854 6.764-6.854 3.827 0 6.764 3.026 6.764 6.854M212.229 28.52h11.161v43.431h-11.165zm41.912-.733a21.6 21.6 0 0 0-13.179 4.406V28.52h-11.163V84.7h11.163V68.28a21.6 21.6 0 0 0 13.179 4.407c12.399 0 22.443-10.051 22.443-22.45 0-12.397-10.044-22.448-22.443-22.448m-.983 34.644c-6.736 0-12.196-5.46-12.196-12.195s5.46-12.196 12.196-12.196 12.195 5.46 12.195 12.196-5.46 12.194-12.195 12.195m228.12-4.199c0 8.374-7.184 14.453-17.082 14.453s-17.444-6.223-17.444-15.133v-.242h10.925v.242c0 3.718 2.654 6.217 6.61 6.217 3.955 0 6.338-1.85 6.338-4.602 0-2.607-1.763-4.065-6.502-5.376l-6.24-1.702c-6.557-1.775-10.316-6.047-10.316-11.721 0-7.29 6.877-12.581 16.358-12.581 9.48 0 15.997 5.294 15.997 13.177v.247H469.63v-.247c0-2.676-2.507-4.772-5.705-4.772-3.36 0-5.705 1.542-5.705 3.751 0 2.21 1.67 3.58 5.956 4.695l6.516 1.787c8.75 2.335 10.586 7.71 10.586 11.807m-165.066-26.04a21.6 21.6 0 0 0-13.185-4.407c-12.399 0-22.449 10.052-22.449 22.45s10.053 22.449 22.449 22.449a21.6 21.6 0 0 0 13.179-4.407v3.673h11.164v-43.43h-11.164zm0 18.044c0 6.735-5.461 12.195-12.196 12.194-6.736 0-12.196-5.461-12.195-12.196 0-6.736 5.46-12.195 12.196-12.195 6.734.003 12.192 5.463 12.192 12.197zm51.49-18.044a21.6 21.6 0 0 0-13.178-4.407c-12.398 0-22.45 10.052-22.45 22.45s10.052 22.449 22.45 22.449a21.6 21.6 0 0 0 13.178-4.407v3.673h11.165v-58.89h-11.165zm-12.194 30.238c-6.735 0-12.195-5.459-12.196-12.194s5.459-12.195 12.194-12.197c6.735 0 12.195 5.46 12.196 12.195s-5.458 12.196-12.194 12.196m75.214-33.906h11.165v43.426h-11.165zm12.347-10.327a6.764 6.764 0 1 1-13.528 0c0-3.828 2.937-6.854 6.764-6.854s6.758 3.021 6.758 6.849zm64.037 9.593c-12.398 0-22.449 10.051-22.449 22.45s10.051 22.449 22.449 22.449 22.443-10.051 22.443-22.45c0-12.397-10.053-22.453-22.449-22.453zm0 34.645c-6.735 0-12.195-5.46-12.195-12.195s5.46-12.196 12.195-12.196 12.196 5.46 12.196 12.196c-.003 6.734-5.464 12.193-12.198 12.19h-.004zM187.74 23.025h-15.856v48.927h-11.127V23.025H144.9v-9.963h42.836zm226.576 5.496h11.729l-14.987 43.431h-13.431l-14.906-43.43h11.729l9.934 31.537zm140.232 0h5.233V38.88h-6.123c-4.717 0-7.744 2.314-7.744 7.032v26.041H534.72v-43.43h11.194v7.297c.979-5.162 4.54-7.298 8.634-7.298M44.508 49.661c0 6.436-5.218 11.654-11.653 11.654s-11.653-5.218-11.653-11.654c0-6.435 5.218-11.654 11.653-11.654s11.653 5.219 11.653 11.654m54.028-11.654c-6.435 0-11.653 5.219-11.653 11.654 0 6.436 5.218 11.654 11.653 11.654s11.653-5.218 11.653-11.654c-.002-6.432-5.215-11.647-11.647-11.65zm32.855 11.654c0 18.136-14.715 32.84-32.855 32.84a32.7 32.7 0 0 1-22.31-8.74L65.71 85.201 55.19 73.748A32.7 32.7 0 0 1 32.873 82.5C14.746 82.5.036 67.797.036 49.66a32.75 32.75 0 0 1 10.71-24.27L0 13.698h23.876c25.263-17.194 58.467-17.194 83.73 0h23.814L120.675 25.39a32.75 32.75 0 0 1 10.716 24.271m-76.305 0c0-12.273-9.95-22.225-22.223-22.225S10.64 37.388 10.64 49.661s9.95 22.225 22.223 22.225 22.222-9.948 22.223-22.221zm35.283-33.18a64.13 64.13 0 0 0-49.326 0c14.03 5.37 24.667 17.914 24.667 32.54 0-14.625 10.635-27.17 24.66-32.54m30.395 33.179c0-12.274-9.95-22.225-22.223-22.225s-22.223 9.95-22.223 22.225c0 12.273 9.95 22.225 22.223 22.225s22.223-9.952 22.223-22.225"/></svg>